<svg viewBox="0 0 24 24" fill="none" xmlns="http://www.w3.org/2000/svg">
  <path d="M6 12H2V18C2 19.1 2.9 20 4 20H8C9.1 20 10 19.1 10 18V12H6Z" stroke="#c8973a" stroke-width="1.5"/>
  <path d="M18 12H22V18C22 19.1 21.1 20 20 20H16C14.9 20 14 19.1 14 18V12H18Z" stroke="#c8973a" stroke-width="1.5"/>
  <path d="M10 12L12 8L14 12" stroke="#c43060" stroke-width="1.5" stroke-linecap="round" stroke-linejoin="round"/>
  <circle cx="6" cy="15" r="1" fill="#c43060"/>
  <circle cx="6" cy="17" r="1" fill="#c43060"/>
  <circle cx="4" cy="16" r="1" fill="#c43060"/>
  <circle cx="8" cy="16" r="1" fill="#c43060"/>
  <circle cx="17" cy="14" r="1" fill="#c8973a"/>
  <circle cx="19" cy="16" r="1" fill="#c8973a"/>
</svg>
